PathFileType	4	(X/Y/Z)	s08c0403.trc
DataRate	CameraRate	NumFrames	NumMarkers	Units	OrigDataRate	OrigDataStartFrame	OrigNumFrames
200	200	5	50	mm	200	0	2000
Frame#	Time	racr			lacr			c7			jug			rlel			rdr			llel			ldr			s2			lic			ric			lasi			rasi			rpsi			lpsi			rgt			lgt			rth1			rth2			rth3			rth4			rlfc			rmfc			rsh1			rsh2			rsh3			rsh4			rlmal			rmmal			rcal			rtoe			rmt5			lth1			lth2			lth4			lth3			llfc			lmfc			llmal			lmmal			lcal			lmt5			lsh1			lsh2			lsh3			lsh4			ltoe			SBIKE			LBIKE			RBIKE			
		X1	Y1	Z1	X2	Y2	Z2	X3	Y3	Z3	X4	Y4	Z4	X5	Y5	Z5	X6	Y6	Z6	X7	Y7	Z7	X8	Y8	Z8	X9	Y9	Z9	X10	Y10	Z10	X11	Y11	Z11	X12	Y12	Z12	X13	Y13	Z13	X14	Y14	Z14	X15	Y15	Z15	X16	Y16	Z16	X17	Y17	Z17	X18	Y18	Z18	X19	Y19	Z19	X20	Y20	Z20	X21	Y21	Z21	X22	Y22	Z22	X23	Y23	Z23	X24	Y24	Z24	X25	Y25	Z25	X26	Y26	Z26	X27	Y27	Z27	X28	Y28	Z28	X29	Y29	Z29	X30	Y30	Z30	X31	Y31	Z31	X32	Y32	Z32	X33	Y33	Z33	X34	Y34	Z34	X35	Y35	Z35	X36	Y36	Z36	X37	Y37	Z37	X38	Y38	Z38	X39	Y39	Z39	X40	Y40	Z40	X41	Y41	Z41	X42	Y42	Z42	X43	Y43	Z43	X44	Y44	Z44	X45	Y45	Z45	X46	Y46	Z46	X47	Y47	Z47	X48	Y48	Z48	X49	Y49	Z49	X50	Y50	Z50	
0	0.0000	473.399929	1385.684134	-61.043301	491.768698	1397.765694	-424.087546	457.347632	1449.831018	-237.852477	440.721854	1295.476369	-229.362404	552.116201	1144.668380	6.881446	759.461713	926.629564	-65.183306	588.085467	1162.181260	-472.352212	761.296642	923.966090	-438.738906	-79.872505	1195.921930	-253.195981	102.205696	1173.376126	-401.939135	76.559264	1207.909610	-85.677585	117.899825	1114.130363	-360.334109	96.987529	1149.916148	-116.363500	-51.793062	1241.300000	-203.752424	-41.127807	1233.662216	-299.701388	-0.411303	1116.975557	-39.439426	9.654964	1053.854987	-418.977191	148.810279	1036.582977	-34.321377	236.859231	1024.223709	-38.084836	304.918420	969.946599	-43.065792	249.407808	1056.323145	-54.078390	404.856760	904.438871	-66.187737	387.614870	894.726845	-179.228969	334.707714	795.747882	-34.461624	319.452649	708.569572	-53.119096	263.379455	642.930737	-60.077174	344.333800	703.009312	-88.348349	207.843224	537.948520	-69.810050	224.332451	560.537840	-156.394326	128.158996	502.162717	-112.237356	427.074883	519.642022	-109.374157	340.258453	481.203287	-42.510251	47.689540	922.903242	-434.735957	89.166936	845.976465	-428.587206	118.145416	857.491995	-446.729127	84.867334	757.374385	-423.349141	107.392857	632.385107	-395.478465	100.057211	610.388720	-294.228206	33.128962	219.120924	-397.722474	70.738427	253.569319	-325.771099	-27.976535	176.505085	-356.077634	185.128833	165.023418	-419.250245	107.321587	521.020392	-442.109823	85.216484	423.311661	-405.656033	52.432817	341.518436	-408.613688	104.856281	424.473237	-372.180701	258.860621	211.994525	-351.096205	-213.008532	916.243185	-237.313362	-9.011566	80.176505	-426.641097	-8.868147	80.160346	-27.958178	
1	0.0050	473.331374	1385.684985	-61.028348	491.642770	1397.679404	-424.101301	457.223211	1449.820852	-237.856865	440.569230	1295.452194	-229.224241	552.098998	1144.675048	6.891086	759.408952	926.638146	-65.178596	587.982118	1162.115005	-472.379290	761.257412	923.950078	-438.702970	-80.003341	1195.936241	-253.207764	102.073936	1173.341828	-401.923288	76.437920	1207.905488	-85.704788	117.789855	1114.107478	-360.341401	96.882229	1149.936866	-116.367836	-51.911726	1241.368871	-203.826591	-41.221423	1233.666418	-299.756593	-0.509670	1116.992669	-39.467461	9.515556	1053.846724	-419.018628	148.725391	1036.638573	-34.345384	236.787512	1024.257524	-38.100122	304.827116	970.010282	-43.124510	249.288351	1056.404543	-54.112151	404.759220	904.474168	-66.239382	384.994635	894.171432	-177.917644	334.623432	795.765755	-34.486027	319.390374	708.617942	-53.130678	263.295825	642.957527	-60.062306	344.848793	702.448905	-86.272654	207.814608	537.947614	-69.808812	224.288730	560.543610	-156.405545	128.111796	502.148189	-112.210606	427.041837	519.646128	-109.356699	340.223412	481.235510	-42.502996	47.565118	922.902362	-434.769961	89.047354	845.983059	-428.640867	118.043123	857.518952	-446.793391	84.738466	757.375229	-423.389109	107.249777	632.404779	-395.506882	99.972661	610.432890	-294.238318	33.138820	219.123730	-397.738102	70.747948	253.597525	-325.777801	-27.940953	176.505979	-356.089924	185.159025	165.012300	-419.234048	107.214426	521.025017	-442.142379	85.157176	423.316999	-405.675605	52.144393	341.927603	-409.540303	104.805554	424.489360	-372.198742	258.871358	211.990248	-351.117948	-213.029991	916.270122	-237.341650	-9.023074	80.208279	-426.645354	-8.877085	80.273146	-27.869581	
2	0.0100	473.237110	1385.663595	-61.078073	491.513064	1397.610519	-424.152185	457.099032	1449.835284	-237.899599	440.444292	1295.449853	-229.257788	552.108811	1144.652862	6.864160	759.399141	926.604101	-65.184680	587.885398	1162.052831	-472.384383	761.229653	923.947355	-438.684527	-80.137568	1195.925606	-253.224942	101.988692	1173.339402	-401.967605	76.302370	1207.899930	-85.712977	117.665554	1114.086604	-360.372196	96.776992	1149.930549	-116.394742	-52.001521	1241.391960	-203.870665	-41.329883	1233.646384	-299.789249	-0.616738	1117.000647	-39.477367	9.375546	1053.843041	-419.052069	148.633538	1036.664621	-34.370291	236.732419	1024.286359	-38.112158	304.756697	970.043177	-43.194206	249.195621	1056.438018	-54.154944	404.686323	904.546844	-66.272328	384.878409	894.211552	-177.953711	334.558030	795.800834	-34.503522	319.315454	708.640031	-53.139137	263.252025	642.974746	-60.084499	344.780091	702.468626	-86.294827	207.768693	537.949161	-69.798413	224.253976	560.551683	-156.411201	128.079243	502.145725	-112.213456	427.009876	519.676062	-109.345618	340.191093	481.239659	-42.503160	47.430084	922.901887	-434.799131	88.904683	845.972732	-428.680951	117.836189	857.488244	-446.825095	84.605834	757.363163	-423.402090	107.127462	632.406723	-395.531218	99.862535	610.446410	-294.265216	33.144373	219.121660	-397.745206	70.738021	253.570820	-325.770406	-27.923936	176.492019	-356.105197	185.174312	165.013899	-419.236430	107.105855	521.008802	-442.139815	85.099251	423.316436	-405.692851	52.113744	341.911708	-409.532081	104.741545	424.474808	-372.171122	258.888255	211.974369	-351.098108	-212.996497	916.243768	-237.324518	-9.018581	80.223899	-426.635348	-8.867760	80.260907	-27.875644	
3	0.0150	473.160710	1385.434454	-61.696601	489.332819	1397.488845	-424.688077	457.129433	1449.941729	-237.992113	440.212348	1295.421210	-229.452712	552.437302	1144.685374	6.283568	759.380039	926.519896	-65.343578	590.070024	1164.933999	-479.776256	761.188110	923.926213	-438.664496	-80.254292	1195.911885	-253.262013	102.830053	1172.714609	-400.137633	76.112714	1207.774438	-85.698095	120.372603	1116.934065	-366.748552	96.677250	1149.947764	-116.394345	-52.230832	1241.352680	-204.005936	-41.457311	1233.651244	-299.807499	-0.698965	1117.020740	-39.498972	8.633853	1054.752224	-421.502912	148.549996	1036.698892	-34.389494	236.750972	1024.565288	-38.112462	304.497030	970.078893	-42.953989	250.019836	1056.023076	-53.125196	404.592466	904.592201	-66.325297	386.348148	893.975924	-177.086726	334.397209	796.091539	-34.080238	317.780994	708.531957	-58.987277	263.203023	642.981480	-60.112751	344.141281	703.244102	-89.429082	207.614214	537.991573	-69.598989	224.204481	560.597717	-156.371059	128.039935	502.120101	-112.196624	426.981932	519.687863	-109.373762	340.219135	481.263374	-42.352439	47.542578	922.882484	-434.274250	88.817238	846.003007	-428.634503	118.512534	856.974779	-442.675093	84.839740	757.183413	-422.438777	111.132710	637.005634	-403.944406	95.607636	611.563341	-296.340386	33.150764	219.098841	-397.749985	70.728101	253.544115	-325.762981	-27.896716	176.472739	-356.094682	184.427049	166.856117	-421.964075	89.973827	516.773502	-441.801848	85.047511	423.344506	-405.759077	51.518866	343.011181	-411.306715	104.439466	425.585501	-374.548406	258.903591	211.964719	-351.108489	-213.030151	916.244602	-237.296294	-9.018528	80.213433	-426.626445	-8.857604	80.253274	-27.868329	
4	0.0200	473.094565	1385.320709	-62.109814	486.481207	1397.374877	-425.360647	457.049668	1449.818953	-238.204625	440.254177	1295.052869	-229.459621	553.299210	1143.445776	3.033945	759.779869	926.065243	-65.097233	589.271623	1164.278879	-477.937716	761.391297	923.512179	-437.096042	-80.417486	1196.048827	-253.280133	101.459538	1171.938365	-397.902084	76.044592	1207.943717	-85.871734	122.363508	1118.798231	-370.845529	96.569283	1149.698555	-116.633653	-52.176811	1241.425793	-204.191915	-41.453459	1233.623159	-299.978243	-0.779296	1117.102536	-39.374428	9.122063	1053.720096	-419.054628	148.576736	1036.725036	-34.756845	236.731705	1024.762096	-38.123962	304.487502	970.184026	-43.119687	249.968006	1056.242676	-53.187345	404.969862	904.450952	-65.602430	386.848938	893.183495	-174.914251	334.276979	796.294889	-33.828226	319.379891	708.962398	-52.933585	263.803619	642.927869	-59.067308	343.712706	703.739925	-91.421140	207.997917	537.910493	-69.517332	224.139587	560.935370	-156.724768	128.117633	502.092047	-112.143771	426.910199	519.801878	-109.427553	340.228827	481.282619	-42.257575	46.275444	922.981412	-435.285277	88.659450	845.970829	-428.705434	119.712087	856.181334	-436.036658	84.697644	757.051768	-422.460844	105.472593	636.172147	-403.604027	99.726878	610.579106	-294.488104	33.630408	218.100479	-396.186480	70.757010	253.689723	-325.715605	-27.794552	176.427102	-356.024989	185.201618	164.872050	-419.242677	77.944602	511.319335	-432.729792	84.980426	423.342754	-405.583365	51.961543	341.815161	-409.260910	104.514616	424.648391	-372.259844	258.966592	211.885268	-351.202774	-213.532295	916.257848	-236.910745	-8.989968	80.681303	-426.123828	-8.810024	80.064947	-28.052807	
